<svg xmlns="http://www.w3.org/2000/svg" width="64" height="64" viewBox="0 0 128 128" fill="none">
  <defs>
    <linearGradient id="bgGlow" x1="18" y1="16" x2="110" y2="112" gradientUnits="userSpaceOnUse">
      <stop stop-color="#1A2030" />
      <stop offset="1" stop-color="#0D1117" />
    </linearGradient>
    <linearGradient id="brandGradient" x1="24" y1="96" x2="103" y2="27" gradientUnits="userSpaceOnUse">
      <stop stop-color="#9B5CFF" />
      <stop offset="0.55" stop-color="#7C8DFF" />
      <stop offset="1" stop-color="#7CEBFF" />
    </linearGradient>
    <linearGradient id="metalGradient" x1="30" y1="94" x2="97" y2="32" gradientUnits="userSpaceOnUse">
      <stop stop-color="#AAB9D8" />
      <stop offset="0.35" stop-color="#F3F7FF" />
      <stop offset="0.7" stop-color="#A8BCDC" />
      <stop offset="1" stop-color="#7CEBFF" />
    </linearGradient>
  </defs>

  <rect x="12" y="12" width="104" height="104" rx="28" fill="url(#bgGlow)" />
  <rect x="12.5" y="12.5" width="103" height="103" rx="27.5" stroke="url(#brandGradient)" stroke-opacity="0.28" />

  <path d="M42 82H56L60 74H68L72 82H86L78 90H50L42 82Z" fill="#111827" stroke="url(#metalGradient)" stroke-width="4" stroke-linejoin="round" />
  <path d="M52 72L64 60L72 68L92 44" stroke="url(#metalGradient)" stroke-width="9" stroke-linecap="round" stroke-linejoin="round" />
  <path d="M84 44H93V53" stroke="url(#metalGradient)" stroke-width="9" stroke-linecap="round" stroke-linejoin="round" />
  <path d="M45 72V61" stroke="url(#brandGradient)" stroke-width="5" stroke-linecap="round" />
  <path d="M58 66V49" stroke="url(#brandGradient)" stroke-width="5" stroke-linecap="round" />
  <path d="M71 62V41" stroke="url(#brandGradient)" stroke-width="5" stroke-linecap="round" />
  <path d="M84 52V36" stroke="url(#brandGradient)" stroke-width="5" stroke-linecap="round" />
</svg>
