<svg xmlns="http://www.w3.org/2000/svg" width="420" height="420" viewBox="0 0 420 420" fill="none">
  <defs>
    <linearGradient id="brandGradient" x1="114" y1="244" x2="304" y2="83" gradientUnits="userSpaceOnUse">
      <stop stop-color="#9B5CFF" />
      <stop offset="0.55" stop-color="#7C8DFF" />
      <stop offset="1" stop-color="#7CEBFF" />
    </linearGradient>
    <linearGradient id="metalGradient" x1="120" y1="248" x2="301" y2="86" gradientUnits="userSpaceOnUse">
      <stop stop-color="#AAB9D8" />
      <stop offset="0.35" stop-color="#F3F7FF" />
      <stop offset="0.7" stop-color="#A8BCDC" />
      <stop offset="1" stop-color="#7CEBFF" />
    </linearGradient>
    <linearGradient id="wordGradient" x1="56" y1="295" x2="362" y2="345" gradientUnits="userSpaceOnUse">
      <stop stop-color="#F3F7FF" />
      <stop offset="0.6" stop-color="#D7E0F1" />
      <stop offset="1" stop-color="#7CEBFF" />
    </linearGradient>
  </defs>

  <rect x="90" y="44" width="240" height="240" rx="56" fill="#0D1117" />
  <rect x="90.5" y="44.5" width="239" height="239" rx="55.5" stroke="url(#brandGradient)" stroke-opacity="0.22" />
  <path d="M144 205H176L187 189H203L214 205H247L228 224H163L144 205Z" fill="#111827" stroke="url(#metalGradient)" stroke-width="7" stroke-linejoin="round" />
  <path d="M179 184L206 157L224 175L276 124" stroke="url(#metalGradient)" stroke-width="16" stroke-linecap="round" stroke-linejoin="round" />
  <path d="M256 124H277V145" stroke="url(#metalGradient)" stroke-width="16" stroke-linecap="round" stroke-linejoin="round" />
  <path d="M161 192V161" stroke="url(#brandGradient)" stroke-width="10" stroke-linecap="round" />
  <path d="M189 177V129" stroke="url(#brandGradient)" stroke-width="10" stroke-linecap="round" />
  <path d="M217 168V107" stroke="url(#brandGradient)" stroke-width="10" stroke-linecap="round" />
  <path d="M245 143V95" stroke="url(#brandGradient)" stroke-width="10" stroke-linecap="round" />

  <text x="210" y="338" fill="url(#wordGradient)" font-family="'Segoe UI', Arial, sans-serif" font-size="52" font-weight="700" letter-spacing="-1.6" text-anchor="middle">
    SignalForge
  </text>
  <text x="210" y="370" fill="#8B949E" font-family="'Segoe UI', Arial, sans-serif" font-size="15" font-weight="600" letter-spacing="4.2" text-anchor="middle">
    PRECISION SIGNALS FORGED IN DATA
  </text>
</svg>
